<svg width="142" height="40" viewBox="0 0 142 40" fill="none" xmlns="http://www.w3.org/2000/svg">
<g clip-path="url(#clip0_256_971)">
<path d="M9.30469 27.1094H6.50195V40H4.98828V27.1094H2.17578V25.7227H9.30469V27.1094ZM14.1859 40H12.7211V25.7227H14.1859V40ZM23.0906 40.1953C21.6518 40.1953 20.5125 39.5573 19.6727 38.2812C18.8393 36.9987 18.4227 35.2148 18.4227 32.9297C18.4227 30.638 18.8328 28.8281 19.6531 27.5C20.4799 26.1719 21.6355 25.5078 23.1199 25.5078C24.0314 25.5078 24.8745 25.7487 25.6492 26.2305L25.0633 27.5098C24.4448 27.0996 23.8068 26.8945 23.1492 26.8945C22.1661 26.8945 21.3914 27.4284 20.825 28.4961C20.2651 29.5573 19.9852 31.0156 19.9852 32.8711C19.9852 34.7201 20.2716 36.1751 20.8445 37.2363C21.4174 38.291 22.2085 38.8184 23.2176 38.8184C23.9793 38.8184 24.6792 38.6491 25.3172 38.3105V39.6777C24.7443 40.0228 24.0021 40.1953 23.0906 40.1953ZM30.6965 40H29.173V25.7227H30.6965V33.125C31.0025 32.487 32.3143 30.0195 34.632 25.7227H36.2629L32.7766 31.9727C33.1086 32.6953 33.6913 33.9681 34.5246 35.791C35.3579 37.6139 36.0025 39.0169 36.4582 40H34.8078C33.1672 36.3151 32.1581 34.056 31.7805 33.2227L30.6965 34.5508V40ZM45.1188 27.0996H41.0465V31.8457H44.8746V33.2227H41.0465V38.6133H45.1188V40H39.5328V25.7227H45.1188V27.0996ZM54.9414 27.1094H52.1387V40H50.625V27.1094H47.8125V25.7227H54.9414V27.1094ZM60.3207 38.8184C60.9717 38.8184 61.4958 38.584 61.893 38.1152C62.2966 37.6465 62.4984 37.0768 62.4984 36.4062C62.4984 35.7292 62.3194 35.166 61.9613 34.7168C61.6033 34.2611 61.0987 33.8346 60.4477 33.4375C59.4125 32.8581 58.6833 32.2689 58.2602 31.6699C57.8435 31.071 57.6352 30.2441 57.6352 29.1895C57.6352 28.1348 57.9574 27.2591 58.602 26.5625C59.253 25.8659 60.0928 25.5176 61.1215 25.5176C62.1501 25.5176 63.0648 25.752 63.8656 26.2207C63.7419 26.5137 63.5629 26.9531 63.3285 27.5391C62.5733 27.1354 61.8734 26.9336 61.2289 26.9336C60.5909 26.9336 60.0798 27.1484 59.6957 27.5781C59.3181 28.0013 59.1293 28.5514 59.1293 29.2285C59.1293 29.9056 59.2693 30.446 59.5492 30.8496C59.8292 31.2467 60.4184 31.696 61.3168 32.1973C62.2673 32.7116 62.9542 33.2845 63.3773 33.916C63.8005 34.5475 64.0121 35.3092 64.0121 36.2012C64.0121 37.4186 63.6801 38.3887 63.016 39.1113C62.3585 39.834 61.4698 40.1953 60.35 40.1953C59.2302 40.1953 58.2862 40.0065 57.518 39.6289V38.0664C57.9086 38.2943 58.3578 38.4766 58.8656 38.6133C59.3734 38.75 59.8585 38.8184 60.3207 38.8184ZM75.757 40.1953C74.813 40.1953 74.0741 39.8633 73.5402 39.1992C73.0064 38.5352 72.7395 37.6074 72.7395 36.416C72.7395 35.5566 72.9055 34.8145 73.2375 34.1895C73.576 33.5579 74.149 32.9102 74.9563 32.2461C74.481 31.4128 74.1652 30.752 74.009 30.2637C73.8527 29.7754 73.7746 29.2285 73.7746 28.623C73.7746 27.6725 73.9895 26.9173 74.4191 26.3574C74.8488 25.7975 75.425 25.5176 76.1477 25.5176C76.8703 25.5176 77.4465 25.7845 77.8762 26.3184C78.3059 26.8457 78.5207 27.5456 78.5207 28.418C78.5207 29.2904 78.3775 30.0358 78.091 30.6543C77.8111 31.2728 77.3391 31.8783 76.675 32.4707C76.968 32.9525 77.3814 33.6458 77.9152 34.5508C78.4556 35.4557 78.7779 35.9928 78.882 36.1621C79.2466 35.4199 79.4615 34.4694 79.5266 33.3105H80.8938C80.8482 34.0007 80.7147 34.7331 80.4934 35.5078C80.272 36.276 80.0148 36.9173 79.7219 37.4316L81.3625 40H79.6828C79.5852 39.8372 79.4387 39.5898 79.2434 39.2578C79.0546 38.9258 78.9113 38.6784 78.8137 38.5156C78.3579 39.1276 77.8925 39.5605 77.4172 39.8145C76.9484 40.0684 76.3951 40.1953 75.757 40.1953ZM76.1379 26.8359C75.8384 26.8359 75.604 26.9857 75.4348 27.2852C75.272 27.5781 75.1906 27.985 75.1906 28.5059C75.1906 29.0267 75.2655 29.5475 75.4152 30.0684C75.5715 30.5892 75.7766 31.0449 76.0305 31.4355C76.4276 31.0579 76.7076 30.638 76.8703 30.1758C77.0331 29.7135 77.1145 29.1699 77.1145 28.5449C77.1145 27.4056 76.7889 26.8359 76.1379 26.8359ZM75.6301 33.2617C75.1027 33.75 74.7382 34.222 74.5363 34.6777C74.3345 35.127 74.2336 35.7129 74.2336 36.4355C74.2336 37.1582 74.3833 37.7376 74.6828 38.1738C74.9823 38.6035 75.3892 38.8184 75.9035 38.8184C76.7173 38.8184 77.44 38.3301 78.0715 37.3535L75.6301 33.2617ZM96.0859 27.1094H93.2832V40H91.7695V27.1094H88.957V25.7227H96.0859V27.1094ZM103.35 25.5176C104.776 25.5176 105.87 26.1523 106.631 27.4219C107.393 28.6914 107.774 30.5013 107.774 32.8516C107.774 35.2018 107.39 37.015 106.621 38.291C105.86 39.5605 104.756 40.1953 103.311 40.1953C101.866 40.1953 100.765 39.5605 100.01 38.291C99.2549 37.015 98.8773 35.1921 98.8773 32.8223C98.8773 27.9525 100.368 25.5176 103.35 25.5176ZM103.35 26.9043C102.386 26.9043 101.661 27.4089 101.172 28.418C100.684 29.4206 100.44 30.8984 100.44 32.8516C100.44 34.8047 100.684 36.2858 101.172 37.2949C101.661 38.304 102.377 38.8086 103.321 38.8086C104.271 38.8086 104.991 38.3105 105.479 37.3145C105.967 36.3118 106.211 34.821 106.211 32.8418C106.211 28.8835 105.258 26.9043 103.35 26.9043ZM119.345 25.7227V35.2246C119.345 36.8652 119.026 38.1055 118.387 38.9453C117.749 39.7786 116.805 40.1953 115.555 40.1953C114.312 40.1953 113.365 39.7689 112.714 38.916C112.063 38.0632 111.737 36.8294 111.737 35.2148V25.7227H113.261V35.3613C113.261 36.4876 113.459 37.3438 113.856 37.9297C114.253 38.5091 114.823 38.7988 115.565 38.7988C116.307 38.7988 116.871 38.5059 117.255 37.9199C117.639 37.334 117.831 36.4779 117.831 35.3516V25.7227H119.345ZM123.777 25.7227H126.228C127.64 25.7227 128.679 26.0547 129.343 26.7188C130.014 27.3828 130.349 28.3952 130.349 29.7559C130.349 30.7324 130.176 31.5365 129.831 32.168C129.493 32.7995 128.952 33.278 128.21 33.6035L131.013 40H129.353L126.823 33.9844H125.29V40H123.777V25.7227ZM125.29 27.1094V32.6465H126.413C127.201 32.6465 127.797 32.4089 128.2 31.9336C128.604 31.4583 128.806 30.7487 128.806 29.8047C128.806 28.8542 128.601 28.1673 128.191 27.7441C127.78 27.321 127.126 27.1094 126.228 27.1094H125.29ZM136.5 38.8184C137.151 38.8184 137.675 38.584 138.072 38.1152C138.476 37.6465 138.677 37.0768 138.677 36.4062C138.677 35.7292 138.498 35.166 138.14 34.7168C137.782 34.2611 137.278 33.8346 136.627 33.4375C135.591 32.8581 134.862 32.2689 134.439 31.6699C134.022 31.071 133.814 30.2441 133.814 29.1895C133.814 28.1348 134.136 27.2591 134.781 26.5625C135.432 25.8659 136.272 25.5176 137.3 25.5176C138.329 25.5176 139.244 25.752 140.045 26.2207C139.921 26.5137 139.742 26.9531 139.507 27.5391C138.752 27.1354 138.052 26.9336 137.408 26.9336C136.77 26.9336 136.259 27.1484 135.875 27.5781C135.497 28.0013 135.308 28.5514 135.308 29.2285C135.308 29.9056 135.448 30.446 135.728 30.8496C136.008 31.2467 136.597 31.696 137.496 32.1973C138.446 32.7116 139.133 33.2845 139.556 33.916C139.979 34.5475 140.191 35.3092 140.191 36.2012C140.191 37.4186 139.859 38.3887 139.195 39.1113C138.537 39.834 137.649 40.1953 136.529 40.1953C135.409 40.1953 134.465 40.0065 133.697 39.6289V38.0664C134.087 38.2943 134.537 38.4766 135.045 38.6133C135.552 38.75 136.037 38.8184 136.5 38.8184Z" fill="black"/>
<path d="M8.258 3.984V20H3.862V3.984H0.222V0.176H11.898V3.984H8.258ZM22.7071 20V11.712H18.0871V20H13.6351V0.176H18.0871V7.708H22.7071V0.176H27.1591V20H22.7071ZM30.6976 20V0.176H40.2736V4.124H34.9816V8.016H39.8536V11.712H34.9816V15.996H40.6096V20H30.6976ZM57.0417 20H51.3577L46.5697 0.176H51.6377L54.3257 14.68H54.3817L57.0417 0.176H61.9137L57.0417 20ZM72.1107 20L71.2987 16.388H66.8467L66.0347 20H61.5547L66.3707 0.176H71.9987L76.7867 20H72.1107ZM69.1427 4.488H69.0307L67.3507 12.916H70.7387L69.1427 4.488ZM84.2736 3.984V20H79.8776V3.984H76.2376V0.176H87.9136V3.984H84.2736ZM89.6507 20V0.176H94.1587V20H89.6507ZM110.066 17.844C109.524 18.6093 108.815 19.2533 107.938 19.776C107.06 20.28 105.94 20.532 104.578 20.532C103.42 20.532 102.366 20.28 101.414 19.776C100.48 19.2533 99.6778 18.5347 99.0058 17.62C98.3338 16.6867 97.8111 15.5853 97.4378 14.316C97.0644 13.028 96.8778 11.6187 96.8778 10.088C96.8778 8.53867 97.0644 7.12 97.4378 5.832C97.8111 4.544 98.3338 3.44267 99.0058 2.528C99.6778 1.61333 100.48 0.903999 101.414 0.399999C102.366 -0.104002 103.42 -0.356002 104.578 -0.356002C105.903 -0.356002 107.004 -0.113335 107.882 0.371999C108.778 0.838665 109.496 1.42667 110.038 2.136L107.63 5.384C107.294 4.936 106.911 4.58133 106.482 4.32C106.071 4.05867 105.548 3.928 104.914 3.928C104.316 3.928 103.794 4.08667 103.346 4.404C102.916 4.72133 102.543 5.16 102.226 5.72C101.927 6.26133 101.703 6.91467 101.554 7.68C101.404 8.42667 101.33 9.22933 101.33 10.088C101.33 10.9467 101.404 11.7493 101.554 12.496C101.703 13.2427 101.927 13.896 102.226 14.456C102.543 15.016 102.926 15.4547 103.374 15.772C103.822 16.0893 104.344 16.248 104.942 16.248C105.539 16.248 106.062 16.0987 106.51 15.8C106.958 15.5013 107.312 15.1467 107.574 14.736L110.066 17.844ZM120.482 20L119.67 16.388H115.218L114.406 20H109.926L114.742 0.176H120.37L125.158 20H120.482ZM117.514 4.488H117.402L115.722 12.916H119.11L117.514 4.488ZM135.461 20L130.869 7.932H130.785L130.897 20H126.893V0.176H131.821L136.385 12.412H136.469L136.385 0.176H140.249V20H135.461Z" fill="black"/>
</g>
<defs>
<clipPath id="clip0_256_971">
<rect width="142" height="40" fill="white"/>
</clipPath>
</defs>
</svg>
